<?xml version="1.0" encoding="UTF-8"?>
<!DOCTYPE svg  PUBLIC '-//W3C//DTD SVG 1.1 Tiny//EN'  'http://www.w3.org/Graphics/SVG/1.1/DTD/svg11-tiny.dtd'>
<svg baseProfile="tiny" version="1.1" viewBox="0 0 20 20" xml:space="preserve" xmlns="http://www.w3.org/2000/svg">
<g transform="translate(0 -1032.4)">
		<circle cx="10.014" cy="1042.4" r="8.563" fill="#fff">
	</circle>
		<path d="m10.032 1032.7c-5.331 0-9.706 4.327-9.706 9.657s4.375 9.706 9.706 9.706 9.657-4.375 9.657-9.706-4.326-9.657-9.657-9.657zm0 2.232c4.128 0 7.425 3.297 7.425 7.425s-3.297 7.473-7.425 7.473-7.473-3.345-7.473-7.473 3.345-7.425 7.473-7.425z" fill="#D40000"/>
	<path d="m7.352 1038.1l-1.602 1.602 2.649 2.68-2.649 2.648 1.602 1.602 2.648-2.648 2.68 2.648 1.602-1.602-2.68-2.648 2.68-2.68-1.602-1.602-2.68 2.68-2.648-2.68z" fill="#D40000"/>
</g>
</svg>
