<?xml version="1.0" encoding="iso-8859-1"?>
<!-- Generator: Adobe Illustrator 19.0.0, SVG Export Plug-In . SVG Version: 6.00 Build 0)  -->
<svg version="1.1" id="Capa_1" xmlns="http://www.w3.org/2000/svg" xmlns:xlink="http://www.w3.org/1999/xlink" x="0px" y="0px"
	 viewBox="0 0 512 512" style="enable-background:new 0 0 512 512;" xml:space="preserve">
<g>
	<path style="fill:#7F5B53;" d="M35.31,97.103H8.828c-4.869,0.014-8.813,3.958-8.828,8.828v361.931
		c0.014,4.869,3.958,8.813,8.828,8.828h197.297C213.577,497.847,233.568,512,256,512s42.423-14.153,49.876-35.31h197.297
		c4.869-0.014,8.813-3.958,8.828-8.828V105.931c-0.014-4.869-3.958-8.813-8.828-8.828H35.31z"/>
	<g>
		<path style="fill:#FDD7AD;" d="M256,44.138v361.931c-0.023-29.243-23.723-52.943-52.966-52.966H44.138
			c-4.869,0.014-8.813,3.958-8.828,8.828V52.966c0.014-4.869,3.958-8.813,8.828-8.828H256z"/>
		<path style="fill:#FDD7AD;" d="M476.69,52.966v308.966c-0.014-4.869-3.958-8.813-8.828-8.828H308.966
			c-29.243,0.023-52.943,23.723-52.966,52.966V44.138h211.862C472.732,44.152,476.676,48.096,476.69,52.966z"/>
	</g>
	<g>
		<path style="fill:#CBB292;" d="M256,406.069v35.31H44.138c-4.869-0.014-8.813-3.958-8.828-8.828v-70.621
			c0.014-4.869,3.958-8.813,8.828-8.828h158.897C232.277,353.126,255.977,376.826,256,406.069z"/>
		<path style="fill:#CBB292;" d="M476.69,361.931v70.621c-0.014,4.869-3.958,8.813-8.828,8.828H256v-35.31
			c0.023-29.243,23.723-52.943,52.966-52.966h158.897C472.732,353.118,476.676,357.062,476.69,361.931z"/>
	</g>
	<circle style="fill:#4482C3;" cx="256" cy="97.103" r="97.103"/>
	<path style="fill:#FFFFFF;" d="M256,158.897c-2.341,0.001-4.587-0.929-6.243-2.585c-1.656-1.656-2.585-3.901-2.585-6.243V79.448
		c0-4.875,3.952-8.828,8.828-8.828s8.828,3.952,8.828,8.828v70.621c0.001,2.341-0.929,4.587-2.585,6.243
		C260.587,157.967,258.341,158.897,256,158.897z"/>
	<g>
		<path style="fill:#7F6E5D;" d="M211.862,397.241c-0.014,4.87-3.958,8.813-8.828,8.828H35.31v-17.655h167.724
			C207.904,388.428,211.848,392.372,211.862,397.241z"/>
		<path style="fill:#7F6E5D;" d="M476.69,388.414v17.655H308.966c-4.875,0-8.828-3.952-8.828-8.828c0-4.875,3.952-8.828,8.828-8.828
			H476.69z"/>
	</g>
	<g>
		<path style="fill:#5E5F62;" d="M441.379,211.862h-88.276c-4.875,0-8.828-3.952-8.828-8.828s3.952-8.828,8.828-8.828h88.276
			c4.875,0,8.828,3.952,8.828,8.828S446.255,211.862,441.379,211.862z"/>
		<path style="fill:#5E5F62;" d="M441.379,256H317.793c-4.875,0-8.828-3.952-8.828-8.828s3.952-8.828,8.828-8.828h123.586
			c4.875,0,8.828,3.952,8.828,8.828S446.255,256,441.379,256z"/>
		<path style="fill:#5E5F62;" d="M441.379,300.138H317.793c-4.875,0-8.828-3.952-8.828-8.828s3.952-8.828,8.828-8.828h123.586
			c4.875,0,8.828,3.952,8.828,8.828S446.255,300.138,441.379,300.138z"/>
		<path style="fill:#5E5F62;" d="M158.897,211.862H70.621c-4.875,0-8.828-3.952-8.828-8.828s3.952-8.828,8.828-8.828h88.276
			c4.875,0,8.828,3.952,8.828,8.828S163.772,211.862,158.897,211.862z"/>
		<path style="fill:#5E5F62;" d="M194.207,256H70.621c-4.875,0-8.828-3.952-8.828-8.828s3.952-8.828,8.828-8.828h123.586
			c4.875,0,8.828,3.952,8.828,8.828S199.082,256,194.207,256z"/>
		<path style="fill:#5E5F62;" d="M194.207,300.138H70.621c-4.875,0-8.828-3.952-8.828-8.828s3.952-8.828,8.828-8.828h123.586
			c4.875,0,8.828,3.952,8.828,8.828S199.082,300.138,194.207,300.138z"/>
	</g>
	<path style="fill:#FFFFFF;" d="M256,52.966c-2.341,0.001-4.587-0.929-6.243-2.585c-1.656-1.656-2.585-3.901-2.585-6.243V35.31
		c0-4.875,3.952-8.828,8.828-8.828s8.828,3.952,8.828,8.828v8.828c0.001,2.341-0.929,4.587-2.585,6.243
		C260.587,52.036,258.341,52.966,256,52.966z"/>
</g>
<g>
</g>
<g>
</g>
<g>
</g>
<g>
</g>
<g>
</g>
<g>
</g>
<g>
</g>
<g>
</g>
<g>
</g>
<g>
</g>
<g>
</g>
<g>
</g>
<g>
</g>
<g>
</g>
<g>
</g>
</svg>
