<?xml version="1.0" encoding="UTF-8" standalone="no"?>
<!DOCTYPE svg PUBLIC "-//W3C//DTD SVG 1.1//EN" "http://www.w3.org/Graphics/SVG/1.1/DTD/svg11.dtd">
<svg version="1.1" xmlns="http://www.w3.org/2000/svg" xmlns:xlink="http://www.w3.org/1999/xlink" preserveAspectRatio="xMidYMid meet" viewBox="0 0 640 640" width="640" height="640"><defs><path d="M105.79 19.82L432.24 19.82L432.24 310.55L105.79 310.55L105.79 19.82Z" id="b3Sisy9M9"></path><path d="M172.84 43.46C183.89 43.46 192.84 52.41 192.84 63.46C192.84 70.81 192.84 72.89 192.84 80.25C192.84 91.29 183.89 100.25 172.84 100.25C165.73 100.25 164.4 100.25 157.28 100.25C146.24 100.25 137.28 91.29 137.28 80.25C137.28 72.89 137.28 70.81 137.28 63.46C137.28 52.41 146.24 43.46 157.28 43.46C164.4 43.46 165.73 43.46 172.84 43.46Z" id="a3lNzAjnPL"></path><path d="M276.79 43.46C287.84 43.46 296.79 52.41 296.79 63.46C296.79 70.81 296.79 72.89 296.79 80.25C296.79 91.29 287.84 100.25 276.79 100.25C269.68 100.25 268.35 100.25 261.23 100.25C250.19 100.25 241.23 91.29 241.23 80.25C241.23 72.89 241.23 70.81 241.23 63.46C241.23 52.41 250.19 43.46 261.23 43.46C268.35 43.46 269.68 43.46 276.79 43.46Z" id="bGan1PNav"></path><path d="M378.27 43.46C389.32 43.46 398.27 52.41 398.27 63.46C398.27 70.81 398.27 72.89 398.27 80.25C398.27 91.29 389.32 100.25 378.27 100.25C371.16 100.25 369.83 100.25 362.72 100.25C351.67 100.25 342.72 91.29 342.72 80.25C342.72 72.89 342.72 70.81 342.72 63.46C342.72 52.41 351.67 43.46 362.72 43.46C369.83 43.46 371.16 43.46 378.27 43.46Z" id="c7N9pFP0oZ"></path><path d="M172.84 136.79C183.89 136.79 192.84 145.74 192.84 156.79C192.84 164.15 192.84 166.22 192.84 173.58C192.84 184.63 183.89 193.58 172.84 193.58C165.73 193.58 164.4 193.58 157.28 193.58C146.24 193.58 137.28 184.63 137.28 173.58C137.28 166.22 137.28 164.15 137.28 156.79C137.28 145.74 146.24 136.79 157.28 136.79C164.4 136.79 165.73 136.79 172.84 136.79Z" id="d68gc0mRhJ"></path><path d="M276.79 136.79C287.84 136.79 296.79 145.74 296.79 156.79C296.79 164.15 296.79 166.22 296.79 173.58C296.79 184.63 287.84 193.58 276.79 193.58C269.68 193.58 268.35 193.58 261.23 193.58C250.19 193.58 241.23 184.63 241.23 173.58C241.23 166.22 241.23 164.15 241.23 156.79C241.23 145.74 250.19 136.79 261.23 136.79C268.35 136.79 269.68 136.79 276.79 136.79Z" id="d3bhahpSAY"></path><path d="M378.27 136.79C389.32 136.79 398.27 145.74 398.27 156.79C398.27 164.15 398.27 166.22 398.27 173.58C398.27 184.63 389.32 193.58 378.27 193.58C371.16 193.58 369.83 193.58 362.72 193.58C351.67 193.58 342.72 184.63 342.72 173.58C342.72 166.22 342.72 164.15 342.72 156.79C342.72 145.74 351.67 136.79 362.72 136.79C369.83 136.79 371.16 136.79 378.27 136.79Z" id="b35hsHmOm"></path><path d="M172.84 229.63C183.89 229.63 192.84 238.58 192.84 249.63C192.84 256.99 192.84 259.06 192.84 266.42C192.84 277.47 183.89 286.42 172.84 286.42C165.73 286.42 164.4 286.42 157.28 286.42C146.24 286.42 137.28 277.47 137.28 266.42C137.28 259.06 137.28 256.99 137.28 249.63C137.28 238.58 146.24 229.63 157.28 229.63C164.4 229.63 165.73 229.63 172.84 229.63Z" id="a51spexC0"></path><path d="M276.79 229.63C287.84 229.63 296.79 238.58 296.79 249.63C296.79 256.99 296.79 259.06 296.79 266.42C296.79 277.47 287.84 286.42 276.79 286.42C269.68 286.42 268.35 286.42 261.23 286.42C250.19 286.42 241.23 277.47 241.23 266.42C241.23 259.06 241.23 256.99 241.23 249.63C241.23 238.58 250.19 229.63 261.23 229.63C268.35 229.63 269.68 229.63 276.79 229.63Z" id="f1duNdPLcr"></path><path d="M378.27 229.63C389.32 229.63 398.27 238.58 398.27 249.63C398.27 256.99 398.27 259.06 398.27 266.42C398.27 277.47 389.32 286.42 378.27 286.42C371.16 286.42 369.83 286.42 362.72 286.42C351.67 286.42 342.72 277.47 342.72 266.42C342.72 259.06 342.72 256.99 342.72 249.63C342.72 238.58 351.67 229.63 362.72 229.63C369.83 229.63 371.16 229.63 378.27 229.63Z" id="afUrQd6ux"></path></defs><g><g><g><use xlink:href="#b3Sisy9M9" opacity="1" fill="#ffffff" fill-opacity="1"></use></g><g><use xlink:href="#a3lNzAjnPL" opacity="1" fill="#0fdf86" fill-opacity="1"></use></g><g><use xlink:href="#bGan1PNav" opacity="1" fill="#0fdf86" fill-opacity="1"></use></g><g><use xlink:href="#c7N9pFP0oZ" opacity="1" fill="#0fdf86" fill-opacity="1"></use></g><g><use xlink:href="#d68gc0mRhJ" opacity="1" fill="#0fdf86" fill-opacity="1"></use></g><g><use xlink:href="#d3bhahpSAY" opacity="1" fill="#baddce" fill-opacity="1"></use></g><g><use xlink:href="#b35hsHmOm" opacity="1" fill="#0fdf86" fill-opacity="1"></use></g><g><use xlink:href="#a51spexC0" opacity="1" fill="#0fdf86" fill-opacity="1"></use></g><g><use xlink:href="#f1duNdPLcr" opacity="1" fill="#0fdf86" fill-opacity="1"></use></g><g><use xlink:href="#afUrQd6ux" opacity="1" fill="#0fdf86" fill-opacity="1"></use></g></g></g></svg>