<?xml version="1.0" encoding="UTF-8" standalone="no"?>
<!DOCTYPE svg PUBLIC "-//W3C//DTD SVG 1.1//EN" "http://www.w3.org/Graphics/SVG/1.1/DTD/svg11.dtd">
<svg version="1.1" xmlns="http://www.w3.org/2000/svg" xmlns:xlink="http://www.w3.org/1999/xlink" preserveAspectRatio="xMidYMid meet" viewBox="0 0 640 640" width="640" height="640"><defs><path d="M251.3 80.45C273.39 80.45 291.3 98.36 291.3 120.45C291.3 153.96 291.3 214.48 291.3 247.99C291.3 270.08 273.39 287.99 251.3 287.99C222.65 287.99 176.7 287.99 148.05 287.99C125.96 287.99 108.05 270.08 108.05 247.99C108.05 214.48 108.05 153.96 108.05 120.45C108.05 98.36 125.96 80.45 148.05 80.45C176.7 80.45 222.65 80.45 251.3 80.45Z" id="a62y6rDyA"></path><path d="M547.14 27.47C569.23 27.47 587.14 45.38 587.14 67.47C587.14 111.57 587.14 203.88 587.14 247.99C587.14 270.08 569.23 287.99 547.14 287.99C503.48 287.99 412.49 287.99 368.83 287.99C346.74 287.99 328.83 270.08 328.83 247.99C328.83 203.88 328.83 111.57 328.83 67.47C328.83 45.38 346.74 27.47 368.83 27.47C412.49 27.47 503.48 27.47 547.14 27.47Z" id="a1gmRs7FG"></path><path d="M321.95 334.35C344.04 334.35 361.95 352.26 361.95 374.35C361.95 416.69 361.95 503.7 361.95 546.04C361.95 568.13 344.04 586.04 321.95 586.04C265.04 586.04 134.31 586.04 77.4 586.04C55.31 586.04 37.4 568.13 37.4 546.04C37.4 503.7 37.4 416.69 37.4 374.35C37.4 352.26 55.31 334.35 77.4 334.35C134.31 334.35 265.04 334.35 321.95 334.35Z" id="a9uyiBQwQI"></path><path d="M547.14 334.35C569.23 334.35 587.14 352.26 587.14 374.35C587.14 403.44 587.14 450.71 587.14 479.81C587.14 501.9 569.23 519.81 547.14 519.81C518.05 519.81 470.78 519.81 441.69 519.81C419.6 519.81 401.69 501.9 401.69 479.81C401.69 450.71 401.69 403.44 401.69 374.35C401.69 352.26 419.6 334.35 441.69 334.35C470.78 334.35 518.05 334.35 547.14 334.35Z" id="a1GNebak8j"></path><path d="M463.29 188.64C484.14 188.64 501.04 205.54 501.04 226.38C501.04 270.05 501.04 363.32 501.04 406.99C501.04 427.84 484.14 444.74 463.29 444.74C411.67 444.74 294.56 444.74 242.94 444.74C222.09 444.74 205.19 427.84 205.19 406.99C205.19 363.32 205.19 270.05 205.19 226.38C205.19 205.54 222.09 188.64 242.94 188.64C294.56 188.64 411.67 188.64 463.29 188.64Z" id="a7YyY4jSer"></path></defs><g><g><g><use xlink:href="#a62y6rDyA" opacity="1" fill="#9cdddf" fill-opacity="1"></use></g><g><use xlink:href="#a1gmRs7FG" opacity="1" fill="#7452a3" fill-opacity="1"></use></g><g><use xlink:href="#a9uyiBQwQI" opacity="1" fill="#2c2cac" fill-opacity="1"></use></g><g><use xlink:href="#a1GNebak8j" opacity="1" fill="#c61671" fill-opacity="1"></use></g><g><use xlink:href="#a7YyY4jSer" opacity="1" fill="#256b1a" fill-opacity="1"></use><g><use xlink:href="#a7YyY4jSer" opacity="1" fill-opacity="0" stroke="#ffffff" stroke-width="5" stroke-opacity="1"></use></g></g></g></g></svg>